<svg width="52" height="12" viewBox="0 0 52 12" fill="none" xmlns="http://www.w3.org/2000/svg">
<path d="M11.496 6C11.496 9.03772 9.03431 11.5 5.998 11.5C2.9617 11.5 0.5 9.03772 0.5 6C0.5 2.96228 2.9617 0.5 5.998 0.5C9.03431 0.5 11.496 2.96228 11.496 6Z" stroke="#505050"/>
<path d="M31.4897 6C31.4897 9.03772 29.028 11.5 25.9917 11.5C22.9553 11.5 20.4937 9.03772 20.4937 6C20.4937 2.96228 22.9553 0.5 25.9917 0.5C29.028 0.5 31.4897 2.96228 31.4897 6Z" stroke="#505050"/>
<path d="M51.4828 6C51.4828 9.03772 49.0211 11.5 45.9848 11.5C42.9485 11.5 40.4868 9.03772 40.4868 6C40.4868 2.96228 42.9485 0.5 45.9848 0.5C49.0211 0.5 51.4828 2.96228 51.4828 6Z" stroke="#505050"/>
</svg>
